<svg width="520" height="520" viewBox="0 0 520 520" fill="none" xmlns="http://www.w3.org/2000/svg">
  <rect width="520" height="520" rx="120" fill="#FFE5EE"/>
  <rect x="60" y="96" width="340" height="220" rx="48" fill="#FFD3D4"/>
  <rect x="90" y="126" width="280" height="160" rx="40" fill="#FFF3F5"/>
  <circle cx="220" cy="320" r="140" fill="#FBCBD7"/>
  <ellipse cx="220" cy="320" rx="120" ry="110" fill="#FFEEF2"/>
  <circle cx="170" cy="300" r="34" fill="#4C4A83"/>
  <circle cx="270" cy="300" r="34" fill="#4C4A83"/>
  <circle cx="174" cy="296" r="10" fill="#FFFFFF" opacity="0.9"/>
  <circle cx="266" cy="296" r="10" fill="#FFFFFF" opacity="0.9"/>
  <path d="M152 352C170 380 202 398 236 398C270 398 302 380 320 352" stroke="#F77B9B" stroke-width="18" stroke-linecap="round"/>
  <path d="M120 258C100 192 134 152 184 140C228 130 278 140 310 180L352 126C358 118 372 118 380 126L414 160C422 168 422 182 414 190L354 252" fill="#FFB2C6"/>
  <path d="M188 142C188 142 198 118 236 118C274 118 284 142 284 142" stroke="#FF8FA8" stroke-width="18" stroke-linecap="round"/>
  <path d="M118 260C146 242 200 236 240 240" stroke="#FF94BA" stroke-width="12" stroke-linecap="round"/>
  <path d="M320 240C352 236 392 242 420 260" stroke="#FF94BA" stroke-width="12" stroke-linecap="round"/>
  <path d="M120 394C174 440 256 468 334 458" stroke="#FFE1E9" stroke-width="30" stroke-linecap="round"/>
  <circle cx="352" cy="180" r="48" fill="#FF8FA8"/>
  <path d="M336 180H368" stroke="#FFFFFF" stroke-width="14" stroke-linecap="round"/>
  <path d="M352 164V196" stroke="#FFFFFF" stroke-width="14" stroke-linecap="round"/>
  <path d="M64 398C34 362 66 310 122 320" stroke="#FFD0DD" stroke-width="24" stroke-linecap="round"/>
  <circle cx="120" cy="160" r="18" fill="#FF8FA8"/>
  <circle cx="400" cy="380" r="16" fill="#FFB2C6"/>
  <circle cx="360" cy="420" r="12" fill="#FFE1E9"/>
  <rect x="312" y="78" width="80" height="60" rx="16" transform="rotate(12 312 78)" fill="#FF8FA8"/>
</svg>
